<svg xmlns="http://www.w3.org/2000/svg" viewBox="-250 -250 500 500">
    <!-- Definitions -->
    <defs>
        <pattern id="grid" width="20" height="20" patternUnits="userSpaceOnUse">
            <path d="M 20 0 L 0 0 0 20" fill="none" stroke="#f0f0f0" stroke-width="0.5"/>
        </pattern>
        
        <!-- Error detection highlight -->
        <filter id="glow">
            <feGaussianBlur stdDeviation="1.5" result="coloredBlur"/>
            <feMerge>
                <feMergeNode in="coloredBlur"/>
                <feMergeNode in="SourceGraphic"/>
            </feMerge>
        </filter>
    </defs>
    
    <rect x="-250" y="-250" width="500" height="500" fill="url(#grid)" />
    
    <!-- Central Stem -->
    <line x1="0" y1="-120" x2="0" y2="120" stroke="#2C3E50" stroke-width="3"/>
    
    <!-- First Generation - Sinusoidal -->
    <path d="M 0 -120 C -30 -140 -60 -140 -90 -120 S -150 -100 -180 -120" 
          fill="none" stroke="#2E86C1" stroke-width="4"/>
    <path d="M 0 -120 C 30 -140 60 -140 90 -120 S 150 -100 180 -120" 
          fill="none" stroke="#2E86C1" stroke-width="4"/>
    
    <!-- Second Generation - Exponential -->
    <g stroke="#E74C3C" fill="none" stroke-width="3">
        <path d="M -180 -120 C -190 -150 -200 -160 -210 -160"/>
        <path d="M -180 -120 C -190 -90 -200 -80 -210 -80"/>
        <path d="M 180 -120 C 190 -150 200 -160 210 -160"/>
        <path d="M 180 -120 C 190 -90 200 -80 210 -80"/>
    </g>
    
    <!-- Third Generation - Complex Polynomial -->
    <g stroke="#27AE60" fill="none" stroke-width="3">
        <path d="M 0 120 C 40 140 80 140 120 120 Q 140 110 160 120"/>
        <path d="M 0 120 C -40 140 -80 140 -120 120 Q -140 110 -160 120"/>
    </g>
    
    <!-- Fourth Generation - Higher Order Curves -->
    <g stroke="#8E44AD" fill="none" stroke-width="2.5">
        <path d="M -160 120 C -180 130 -190 140 -200 130 S -210 110 -220 120"/>
        <path d="M 160 120 C 180 130 190 140 200 130 S 210 110 220 120"/>
    </g>
    
    <!-- Error Detection Nodes -->
    <g class="error-detection">
        <!-- Primary checkpoints -->
        <circle cx="-180" cy="-120" r="4" fill="#F1C40F" stroke="#E67E22" stroke-width="1.5"/>
        <circle cx="180" cy="-120" r="4" fill="#F1C40F" stroke="#E67E22" stroke-width="1.5"/>
        <circle cx="-160" cy="120" r="4" fill="#F1C40F" stroke="#E67E22" stroke-width="1.5"/>
        <circle cx="160" cy="120" r="4" fill="#F1C40F" stroke="#E67E22" stroke-width="1.5"/>
        
        <!-- Parity bits -->
        <g fill="#9B59B6">
            <circle cx="-210" cy="-160" r="2"/>
            <circle cx="-210" cy="-80" r="2"/>
            <circle cx="210" cy="-160" r="2"/>
            <circle cx="210" cy="-80" r="2"/>
            <circle cx="-220" cy="120" r="2"/>
            <circle cx="220" cy="120" r="2"/>
        </g>
    </g>
    
    <!-- Labels and Legend -->
    <g class="labels" font-family="Arial">
        <!-- Generation Labels -->
        <text x="-240" y="-200" font-size="12" fill="#2E86C1" font-weight="bold">Gen 1: Sinusoidal</text>
        <text x="-240" y="-185" font-size="10" fill="#2E86C1">Amplitude Encoding</text>
        
        <text x="140" y="-200" font-size="12" fill="#E74C3C" font-weight="bold">Gen 2: Exponential</text>
        <text x="140" y="-185" font-size="10" fill="#E74C3C">Steepness Variation</text>
        
        <text x="-240" y="180" font-size="12" fill="#27AE60" font-weight="bold">Gen 3: Polynomial</text>
        <text x="-240" y="195" font-size="10" fill="#27AE60">Complex Patterns</text>
        
        <text x="140" y="180" font-size="12" fill="#8E44AD" font-weight="bold">Gen 4: Higher Order</text>
        <text x="140" y="195" font-size="10" fill="#8E44AD">Maximum Density</text>
        
        <!-- Error Detection Legend -->
        <g transform="translate(-240, 220)">
            <circle cx="5" cy="0" r="4" fill="#F1C40F" stroke="#E67E22" stroke-width="1.5"/>
            <text x="15" y="4" font-size="10" fill="#2C3E50">Error Detection Node</text>
            
            <circle cx="5" cy="20" r="2" fill="#9B59B6"/>
            <text x="15" y="24" font-size="10" fill="#2C3E50">Parity Bit</text>
        </g>
    </g>
</svg>
